<svg width="899" height="410" viewBox="0 0 899 410" fill="none" xmlns="http://www.w3.org/2000/svg">
<path d="M2.65723 184.41C2.72309 184.322 2.81566 184.199 2.93555 184.042C3.20118 183.693 3.59939 183.175 4.12794 182.5C5.18513 181.149 6.7659 179.168 8.85743 176.646C13.0405 171.602 19.2689 164.397 27.4492 155.75C43.8101 138.455 67.978 115.395 99.207 92.3355C161.666 46.2162 252.364 0.100118 365.328 0.100114C478.334 0.100117 569.051 46.2162 631.521 92.3355C662.755 115.395 686.926 138.455 703.288 155.75C711.469 164.396 717.698 171.602 721.881 176.646C723.972 179.168 725.553 181.149 726.61 182.5C727.139 183.175 727.536 183.693 727.802 184.042C727.922 184.199 728.016 184.322 728.082 184.41L2.65723 184.41Z" stroke="white" stroke-width="0.2"/>
<path d="M0.101572 409.901L0.101563 184.831C0.159989 184.915 0.232106 185.02 0.318359 185.144C0.584495 185.526 0.983635 186.093 1.5127 186.833C2.57096 188.312 4.15236 190.482 6.24512 193.243C10.4306 198.765 16.6613 206.653 24.8447 216.118C41.2118 235.048 65.3895 260.289 96.6299 285.529C159.11 336.009 249.849 386.494 362.872 386.494C469.209 386.494 537.65 353.001 594.656 319.512C651.668 286.02 697.212 252.558 757.793 252.558C837.281 252.558 898.79 330.631 898.842 409.901L0.101572 409.901Z" stroke="white" stroke-width="0.2"/>
</svg>
