<svg width="240" height="160" viewBox="0 0 240 160" fill="none" xmlns="http://www.w3.org/2000/svg">
<path d="M6.56 159.29C5.28 159.29 4.14 158.96 3.15 158.29C2.16 157.63 1.39 156.68 0.83 155.47C0.28 154.25 0 152.81 0 151.15C0 149.49 0.28 148.06 0.84 146.85C1.4 145.65 2.19 144.72 3.19 144.06C4.19 143.4 5.36 143.07 6.69 143.07C7.61 143.07 8.41 143.26 9.1 143.64C9.79 144.02 10.35 144.45 10.77 144.95L10.1 145.66C9.69 145.19 9.2 144.8 8.63 144.51C8.06 144.22 7.41 144.07 6.68 144.07C5.54 144.07 4.56 144.36 3.72 144.94C2.89 145.52 2.25 146.33 1.8 147.39C1.35 148.44 1.12 149.7 1.12 151.15C1.12 152.6 1.35 153.85 1.8 154.93C2.25 156.01 2.89 156.84 3.71 157.42C4.53 158.01 5.51 158.3 6.63 158.3C7.42 158.3 8.13 158.14 8.76 157.81C9.38 157.49 9.98 157.01 10.55 156.37L11.19 157.06C10.6 157.74 9.94 158.28 9.2 158.69C8.46 159.09 7.57 159.3 6.54 159.3H6.56V159.29Z" fill="white"/>
<path d="M19.9201 159.29C18.7801 159.29 17.7701 158.95 16.8901 158.28C16.0101 157.61 15.3201 156.66 14.8201 155.44C14.3201 154.22 14.0701 152.78 14.0701 151.12C14.0701 149.46 14.3201 148.02 14.8201 146.82C15.3201 145.62 16.0101 144.69 16.8901 144.04C17.7701 143.39 18.7801 143.07 19.9201 143.07C21.0601 143.07 22.0701 143.39 22.9501 144.04C23.8301 144.69 24.5201 145.62 25.0201 146.82C25.5201 148.02 25.7701 149.46 25.7701 151.12C25.7701 152.78 25.5201 154.22 25.0201 155.44C24.5201 156.66 23.8301 157.61 22.9501 158.28C22.0701 158.95 21.0601 159.29 19.9201 159.29ZM19.9201 158.3C20.8501 158.3 21.6701 158.01 22.3801 157.42C23.0801 156.83 23.6301 156 24.0301 154.93C24.4301 153.85 24.6201 152.59 24.6201 151.13C24.6201 149.67 24.4201 148.42 24.0301 147.37C23.6301 146.32 23.0801 145.51 22.3801 144.94C21.6801 144.37 20.8601 144.08 19.9201 144.08C18.9801 144.08 18.1701 144.37 17.4601 144.94C16.7601 145.51 16.2001 146.32 15.8101 147.37C15.4101 148.42 15.2201 149.68 15.2201 151.13C15.2201 152.58 15.4201 153.85 15.8101 154.93C16.2001 156.01 16.7601 156.84 17.4601 157.42C18.1601 158 18.9801 158.3 19.9201 158.3Z" fill="white"/>
<path d="M29.74 159.01V143.36H30.9L37 154.43L38.66 157.52H38.71C38.69 156.78 38.67 156.02 38.63 155.26C38.59 154.5 38.57 153.74 38.57 152.98V143.36H39.62V159.01H38.46L32.36 147.94L30.7 144.85H30.65C30.66 145.61 30.69 146.35 30.73 147.08C30.77 147.81 30.79 148.55 30.79 149.29V159H29.74V159.01Z" fill="white"/>
<path d="M49.1401 159.29C47.9401 159.29 46.8801 159.07 45.9601 158.62C45.0401 158.18 44.2601 157.61 43.6101 156.93L44.3201 156.17C44.9201 156.8 45.6401 157.32 46.4701 157.7C47.3001 158.09 48.2001 158.28 49.1701 158.28C50.4401 158.28 51.4401 157.99 52.1701 157.41C52.9101 156.83 53.2701 156.09 53.2701 155.17C53.2701 154.5 53.1301 153.98 52.8601 153.58C52.5801 153.19 52.2101 152.86 51.7401 152.61C51.2701 152.36 50.7601 152.11 50.2101 151.87L47.8301 150.8C47.3601 150.59 46.8501 150.34 46.3201 150.03C45.7901 149.72 45.3401 149.32 44.9801 148.82C44.6201 148.32 44.4301 147.69 44.4301 146.91C44.4301 146.13 44.6401 145.48 45.0601 144.9C45.4801 144.32 46.0501 143.87 46.7701 143.55C47.4901 143.23 48.3001 143.06 49.2001 143.06C50.2001 143.06 51.0901 143.25 51.8701 143.62C52.6501 143.99 53.3001 144.43 53.8001 144.94L53.1601 145.65C52.6701 145.18 52.0901 144.79 51.4301 144.5C50.7601 144.21 50.0101 144.06 49.1701 144.06C48.0801 144.06 47.1901 144.31 46.5201 144.82C45.8501 145.33 45.5101 146.01 45.5101 146.86C45.5101 147.46 45.6701 147.95 45.9901 148.33C46.3101 148.71 46.6901 149.02 47.1501 149.26C47.6101 149.5 48.0401 149.7 48.4601 149.88L50.8101 150.92C51.4401 151.17 52.0201 151.47 52.5601 151.81C53.1001 152.15 53.5201 152.58 53.8501 153.09C54.1801 153.6 54.3501 154.27 54.3501 155.07C54.3501 155.87 54.1301 156.58 53.7001 157.22C53.2701 157.86 52.6601 158.37 51.8801 158.73C51.1001 159.09 50.1901 159.28 49.1201 159.28H49.1401V159.29Z" fill="white"/>
<path d="M60.73 159.01V144.31H55.29V143.36H67.26V144.31H61.82V159.01H60.73Z" fill="white"/>
<path d="M67.26 159.01L72.77 143.36H73.86L79.37 159.01H78.21L76.41 153.64H70.21L68.36 159.01H67.26ZM71.53 149.79L70.53 152.71H76.09L75.09 149.79C74.77 148.86 74.47 147.96 74.19 147.11C73.91 146.25 73.63 145.34 73.36 144.38H73.26C72.99 145.35 72.71 146.26 72.43 147.11C72.14 147.96 71.84 148.86 71.53 149.79Z" fill="white"/>
<path d="M82.21 159.01V143.36H83.37L89.47 154.43L91.13 157.52H91.18C91.16 156.78 91.14 156.02 91.1 155.26C91.06 154.5 91.04 153.74 91.04 152.98V143.36H92.09V159.01H90.93L84.83 147.94L83.17 144.85H83.12C83.13 145.61 83.16 146.35 83.2 147.08C83.24 147.81 83.26 148.55 83.26 149.29V159H82.21V159.01Z" fill="white"/>
<path d="M95.3301 159.01V158.34L104.9 144.26H96.1401V143.33H106.21V143.99L96.6401 158.05H106.38V159H95.3301V159.01Z" fill="white"/>
<path d="M108.24 159.01L113.75 143.36H114.84L120.35 159.01H119.19L117.39 153.64H111.19L109.34 159.01H108.24ZM112.52 149.79L111.52 152.71H117.08L116.08 149.79C115.76 148.86 115.46 147.96 115.18 147.11C114.9 146.25 114.62 145.34 114.35 144.38H114.25C113.98 145.35 113.7 146.26 113.42 147.11C113.13 147.96 112.83 148.86 112.52 149.79Z" fill="white"/>
<path d="M136.34 159.29C135.14 159.29 134.08 159.07 133.16 158.62C132.24 158.18 131.46 157.61 130.81 156.93L131.52 156.17C132.12 156.8 132.84 157.32 133.67 157.7C134.5 158.09 135.4 158.28 136.37 158.28C137.64 158.28 138.64 157.99 139.37 157.41C140.11 156.83 140.47 156.09 140.47 155.17C140.47 154.5 140.33 153.98 140.06 153.58C139.78 153.19 139.41 152.86 138.94 152.61C138.47 152.36 137.96 152.11 137.41 151.87L135.03 150.8C134.56 150.59 134.05 150.34 133.52 150.03C132.99 149.72 132.54 149.32 132.18 148.82C131.82 148.32 131.63 147.69 131.63 146.91C131.63 146.13 131.84 145.48 132.26 144.9C132.68 144.32 133.25 143.87 133.97 143.55C134.69 143.23 135.5 143.06 136.4 143.06C137.4 143.06 138.29 143.25 139.07 143.62C139.85 143.99 140.5 144.43 141 144.94L140.36 145.65C139.87 145.18 139.29 144.79 138.63 144.5C137.96 144.21 137.21 144.06 136.37 144.06C135.28 144.06 134.39 144.31 133.72 144.82C133.05 145.33 132.71 146.01 132.71 146.86C132.71 147.46 132.87 147.95 133.19 148.33C133.51 148.71 133.89 149.02 134.35 149.26C134.81 149.5 135.24 149.7 135.66 149.88L138.01 150.92C138.64 151.17 139.22 151.47 139.76 151.81C140.3 152.15 140.72 152.58 141.05 153.09C141.38 153.6 141.55 154.27 141.55 155.07C141.55 155.87 141.33 156.58 140.9 157.22C140.47 157.86 139.86 158.37 139.08 158.73C138.3 159.09 137.39 159.28 136.32 159.28H136.34V159.29Z" fill="white"/>
<path d="M150.07 159.29C148.79 159.29 147.65 158.96 146.66 158.29C145.67 157.63 144.9 156.68 144.35 155.47C143.79 154.25 143.52 152.81 143.52 151.15C143.52 149.49 143.8 148.06 144.36 146.85C144.92 145.65 145.71 144.72 146.71 144.06C147.72 143.4 148.88 143.07 150.21 143.07C151.13 143.07 151.93 143.26 152.62 143.64C153.31 144.02 153.87 144.45 154.29 144.95L153.62 145.66C153.21 145.19 152.72 144.8 152.15 144.51C151.58 144.22 150.93 144.07 150.2 144.07C149.06 144.07 148.07 144.36 147.24 144.94C146.41 145.52 145.77 146.33 145.32 147.39C144.87 148.44 144.64 149.7 144.64 151.15C144.64 152.6 144.86 153.85 145.32 154.93C145.77 156.01 146.41 156.84 147.23 157.42C148.05 158.01 149.03 158.3 150.15 158.3C150.94 158.3 151.65 158.14 152.27 157.81C152.9 157.49 153.49 157.01 154.06 156.37L154.7 157.06C154.11 157.74 153.45 158.28 152.7 158.69C151.96 159.09 151.07 159.3 150.04 159.3H150.07V159.29Z" fill="white"/>
<path d="M157.56 159.01V143.36H158.65V150.22H166.49V143.36H167.58V159.01H166.49V151.17H158.65V159.01H157.56Z" fill="white"/>
<path d="M174.42 159.01L171.85 143.34H172.94L174.6 154.05C174.68 154.68 174.76 155.29 174.85 155.88C174.94 156.47 175.01 157.09 175.07 157.76H175.14C175.31 157.09 175.49 156.47 175.66 155.88C175.83 155.29 176 154.69 176.16 154.05L178.11 147.42H179.23L181.18 154.05C181.35 154.68 181.52 155.3 181.69 155.89C181.86 156.48 182.03 157.1 182.2 157.75H182.29C182.37 157.1 182.45 156.48 182.53 155.89C182.61 155.3 182.69 154.68 182.77 154.05L184.36 143.34H185.43L182.91 159.01H181.51L179.35 151.58C179.24 151.12 179.13 150.67 179.03 150.21C178.93 149.76 178.81 149.3 178.69 148.84H178.62C178.51 149.3 178.4 149.75 178.29 150.21C178.18 150.66 178.05 151.12 177.91 151.58L175.82 159.01H174.42Z" fill="white"/>
<path d="M187.37 159.01L192.88 143.36H193.97L199.48 159.01H198.32L196.52 153.64H190.32L188.47 159.01H187.37ZM191.65 149.79L190.65 152.71H196.21L195.21 149.79C194.89 148.86 194.59 147.96 194.31 147.11C194.03 146.25 193.75 145.34 193.48 144.38H193.38C193.11 145.35 192.83 146.26 192.55 147.11C192.26 147.96 191.96 148.86 191.65 149.79Z" fill="white"/>
<path d="M202.33 159.01V143.36H206.79C208.34 143.36 209.59 143.67 210.53 144.3C211.47 144.93 211.94 145.99 211.94 147.49C211.94 148.74 211.58 149.72 210.85 150.42C210.12 151.12 209.15 151.56 207.93 151.74L212.25 159.01H210.97L206.74 151.82H203.42V159.01H202.33ZM203.42 150.91H206.51C207.9 150.91 208.97 150.63 209.72 150.07C210.46 149.51 210.84 148.65 210.84 147.49C210.84 146.33 210.47 145.49 209.72 145.01C208.97 144.53 207.91 144.29 206.51 144.29H203.42V150.92V150.91Z" fill="white"/>
<path d="M220.38 159.01V144.31H214.94V143.36H226.91V144.31H221.47V159.01H220.38Z" fill="white"/>
<path d="M228.52 159.01V158.34L238.09 144.26H229.33V143.33H239.4V143.99L229.83 158.05H239.57V159H228.52V159.01Z" fill="white"/>
<path d="M89.5698 70.8444C89.5698 100.705 113.955 118.806 113.955 118.806V22.8828C113.955 22.8828 89.5698 40.9695 89.5698 70.8444Z" fill="white"/>
<path d="M113.955 118.792H142.01V0C132.23 0 122.926 8.13325 122.926 18.6501C122.926 34.671 140.623 42.732 140.623 70.8445C140.623 100.705 113.955 118.806 113.955 118.806" fill="white"/>
</svg>
