<svg width="220" height="125" viewBox="0 0 220 125" fill="none" xmlns="http://www.w3.org/2000/svg">
<path d="M80.9971 51.0641C80.9971 72.69 98.6538 85.7894 98.6538 85.7894V16.3311C98.6538 16.3311 80.9971 29.4305 80.9971 51.0563V51.0641Z" fill="white"/>
<path d="M98.6533 86.0248H120.232V51.2996V0C112.639 0 105.156 5.89082 105.156 13.5073C105.156 25.1085 117.973 30.9523 117.973 51.2996C117.973 72.9254 98.6533 86.0248 98.6533 86.0248Z" fill="white"/>
<path d="M5.30252 124.288C4.51813 124.288 3.80433 124.131 3.16112 123.825C2.51791 123.519 1.95315 123.072 1.48251 122.5C1.01187 121.927 0.643205 121.229 0.384354 120.421C0.125503 119.613 0 118.703 0 117.691C0 116.358 0.227475 115.205 0.682425 114.224C1.13738 113.244 1.77274 112.491 2.58851 111.957C3.40428 111.424 4.34556 111.157 5.42018 111.157C6.16536 111.157 6.81641 111.314 7.38117 111.62C7.94594 111.926 8.39305 112.279 8.72249 112.679L8.18126 113.252C7.84397 112.852 7.45177 112.538 6.98898 112.31C6.52618 112.083 6.00064 111.965 5.41234 111.965C4.48675 111.965 3.69451 112.2 3.01993 112.663C2.34535 113.134 1.82764 113.793 1.46682 114.64C1.09816 115.495 0.917744 116.507 0.917744 117.683C0.917744 118.86 1.09816 119.864 1.46682 120.735C1.83549 121.605 2.34535 122.28 3.01208 122.751C3.67882 123.221 4.46322 123.464 5.37312 123.464C6.02417 123.464 6.60462 123.331 7.11448 123.072C7.61649 122.813 8.09498 122.421 8.54208 121.911L9.05978 122.468C8.58915 123.017 8.04791 123.457 7.44393 123.786C6.83994 124.115 6.12614 124.272 5.29468 124.272L5.30252 124.288Z" fill="white"/>
<path d="M17.3744 124.296C16.4488 124.296 15.6331 124.029 14.9271 123.488C14.2133 122.947 13.6564 122.186 13.2563 121.19C12.8563 120.193 12.6523 119.025 12.6523 117.683C12.6523 116.342 12.8563 115.197 13.2563 114.216C13.6564 113.236 14.2133 112.483 14.9271 111.957C15.6409 111.432 16.4567 111.173 17.3744 111.173C18.2922 111.173 19.1158 111.432 19.8217 111.957C20.5355 112.483 21.0925 113.236 21.4925 114.216C21.8925 115.197 22.0965 116.35 22.0965 117.683C22.0965 119.017 21.8925 120.193 21.4925 121.19C21.0925 122.186 20.5355 122.947 19.8217 123.488C19.1079 124.029 18.2922 124.296 17.3744 124.296ZM17.3744 123.488C18.1274 123.488 18.7942 123.253 19.3668 122.774C19.9394 122.303 20.3787 121.629 20.7003 120.758C21.0219 119.888 21.1787 118.86 21.1787 117.683C21.1787 116.507 21.0219 115.503 20.7003 114.648C20.3787 113.793 19.9315 113.126 19.3668 112.671C18.7942 112.208 18.1353 111.981 17.3744 111.981C16.6135 111.981 15.9547 112.208 15.382 112.671C14.8094 113.134 14.3702 113.793 14.0486 114.648C13.727 115.503 13.5701 116.515 13.5701 117.683C13.5701 118.852 13.727 119.888 14.0486 120.758C14.3702 121.629 14.8173 122.303 15.382 122.774C15.9547 123.245 16.6135 123.488 17.3744 123.488Z" fill="white"/>
<path d="M26.6455 124.06V111.4H27.5868L32.5285 120.35L33.8698 122.844H33.909C33.8933 122.24 33.8776 121.636 33.8384 121.017C33.807 120.405 33.7914 119.785 33.7914 119.173V111.392H34.6385V124.052H33.6972L28.7555 115.102L27.4142 112.608H27.375C27.3907 113.22 27.4064 113.824 27.4456 114.404C27.477 114.985 27.4927 115.589 27.4927 116.2V124.06H26.6455Z" fill="white"/>
<path d="M44.0355 124.296C43.0707 124.296 42.2236 124.115 41.4706 123.755C40.7175 123.394 40.0822 122.939 39.5566 122.39L40.1292 121.778C40.6156 122.303 41.196 122.719 41.8706 123.025C42.5452 123.331 43.2668 123.488 44.0512 123.488C45.0631 123.488 45.871 123.253 46.475 122.79C47.079 122.319 47.3771 121.715 47.3771 120.978C47.3771 120.437 47.2673 120.013 47.0398 119.691C46.8123 119.37 46.5142 119.111 46.1456 118.907C45.7769 118.703 45.3612 118.507 44.8984 118.311L43.0001 117.448C42.6001 117.283 42.1922 117.071 41.7608 116.82C41.3294 116.569 40.9686 116.248 40.6783 115.84C40.3881 115.432 40.2391 114.922 40.2391 114.295C40.2391 113.667 40.4038 113.142 40.7411 112.671C41.0705 112.2 41.5333 111.84 42.1216 111.573C42.7099 111.314 43.3688 111.181 44.0983 111.181C44.9062 111.181 45.6279 111.33 46.2632 111.636C46.8986 111.934 47.4163 112.294 47.832 112.702L47.3143 113.275C46.93 112.875 46.4672 112.561 45.9338 112.334C45.3926 112.106 44.7807 111.989 44.0905 111.989C43.2198 111.989 42.506 112.193 41.9569 112.6C41.4078 113.008 41.1333 113.557 41.1333 114.255C41.1333 114.742 41.2666 115.142 41.5255 115.448C41.7843 115.754 42.0981 116.005 42.4668 116.201C42.8354 116.389 43.1806 116.562 43.51 116.703L45.4161 117.55C45.9259 117.754 46.4044 117.997 46.8358 118.272C47.2751 118.546 47.6202 118.891 47.8791 119.307C48.1379 119.723 48.2713 120.256 48.2713 120.915C48.2713 121.574 48.0987 122.139 47.7457 122.656C47.3928 123.174 46.8986 123.582 46.2632 123.88C45.6279 124.178 44.8905 124.319 44.0434 124.319L44.0355 124.296Z" fill="white"/>
<path d="M55.1036 124.06V112.145H50.7031V111.392H60.3904V112.145H55.99V124.06H55.1036Z" fill="white"/>
<path d="M61.7471 124.084L66.2025 111.423H67.0888L71.5442 124.084H70.6029L68.085 116.632C67.8262 115.879 67.583 115.149 67.3555 114.451C67.1281 113.753 66.9006 113.024 66.681 112.255H66.6025C66.375 113.024 66.1476 113.753 65.9201 114.451C65.6926 115.149 65.4573 115.879 65.1985 116.632L62.6256 124.084H61.7393H61.7471ZM63.7787 119.738V118.985H69.4499V119.738H63.7787Z" fill="white"/>
<path d="M75.5381 124.084V111.423H76.4794L81.4211 120.373L82.7624 122.868H82.8016C82.7859 122.264 82.7702 121.66 82.731 121.04C82.6996 120.428 82.6839 119.809 82.6839 119.197V111.416H83.5311V124.076H82.5898L77.6481 115.126L76.3068 112.631H76.2676C76.2833 113.243 76.2989 113.847 76.3382 114.428C76.3695 115.008 76.3852 115.612 76.3852 116.224V124.084H75.5381Z" fill="white"/>
<path d="M87.7188 124.084V123.566L95.4607 112.153H88.3698V111.4H96.5197V111.941L88.7777 123.315H96.653V124.084H87.7188Z" fill="white"/>
<path d="M99.336 124.084L103.791 111.423H104.678L109.133 124.084H108.192L105.674 116.632C105.415 115.879 105.172 115.149 104.944 114.451C104.717 113.753 104.489 113.024 104.27 112.255H104.191C103.964 113.024 103.736 113.753 103.509 114.451C103.281 115.149 103.046 115.879 102.787 116.632L100.214 124.084H99.3281H99.336ZM101.375 119.738V118.985H107.047V119.738H101.375Z" fill="white"/>
<path d="M123.433 124.288C122.468 124.288 121.621 124.108 120.868 123.747C120.115 123.386 119.48 122.931 118.954 122.382L119.527 121.77C120.013 122.296 120.594 122.711 121.268 123.017C121.943 123.323 122.664 123.48 123.449 123.48C124.461 123.48 125.269 123.245 125.872 122.782C126.476 122.311 126.775 121.707 126.775 120.97C126.775 120.429 126.665 120.005 126.437 119.684C126.21 119.362 125.912 119.103 125.543 118.899C125.174 118.695 124.759 118.499 124.296 118.303L122.398 117.44C121.998 117.275 121.59 117.064 121.158 116.813C120.727 116.562 120.366 116.24 120.076 115.832C119.786 115.424 119.637 114.914 119.637 114.287C119.637 113.659 119.801 113.134 120.139 112.663C120.468 112.193 120.931 111.832 121.519 111.565C122.107 111.306 122.766 111.173 123.496 111.173C124.304 111.173 125.025 111.322 125.661 111.628C126.296 111.926 126.814 112.287 127.229 112.695L126.712 113.267C126.327 112.867 125.865 112.553 125.331 112.326C124.79 112.098 124.178 111.981 123.488 111.981C122.617 111.981 121.903 112.185 121.354 112.593C120.805 113 120.531 113.55 120.531 114.248C120.531 114.734 120.664 115.134 120.923 115.44C121.182 115.746 121.496 115.997 121.864 116.193C122.233 116.381 122.578 116.554 122.907 116.695L124.814 117.542C125.323 117.746 125.802 117.989 126.233 118.264C126.673 118.538 127.018 118.883 127.277 119.299C127.535 119.715 127.669 120.248 127.669 120.907C127.669 121.566 127.496 122.131 127.143 122.649C126.79 123.166 126.296 123.574 125.661 123.872C125.025 124.17 124.288 124.311 123.441 124.311L123.433 124.288Z" fill="white"/>
<path d="M136.641 124.288C135.857 124.288 135.143 124.131 134.5 123.825C133.857 123.519 133.292 123.072 132.821 122.5C132.351 121.927 131.982 121.229 131.723 120.421C131.464 119.613 131.339 118.703 131.339 117.691C131.339 116.358 131.566 115.205 132.021 114.224C132.476 113.244 133.112 112.491 133.927 111.957C134.743 111.424 135.684 111.157 136.759 111.157C137.504 111.157 138.155 111.314 138.72 111.62C139.285 111.926 139.732 112.279 140.061 112.679L139.52 113.252C139.183 112.852 138.791 112.538 138.328 112.31C137.865 112.083 137.339 111.965 136.751 111.965C135.826 111.965 135.033 112.2 134.359 112.663C133.684 113.134 133.167 113.793 132.806 114.64C132.437 115.495 132.257 116.507 132.257 117.683C132.257 118.86 132.437 119.864 132.806 120.735C133.174 121.605 133.684 122.28 134.351 122.751C135.018 123.221 135.802 123.464 136.712 123.464C137.363 123.464 137.943 123.331 138.453 123.072C138.955 122.813 139.434 122.421 139.881 121.911L140.399 122.468C139.928 123.017 139.387 123.457 138.783 123.786C138.179 124.115 137.465 124.272 136.634 124.272L136.641 124.288Z" fill="white"/>
<path d="M145.065 124.06V111.4H145.967V116.953H152.305V111.4H153.207V124.06H152.305V117.722H145.967V124.06H145.065Z" fill="white"/>
<path d="M160.636 124.061L158.558 111.377H159.444L160.785 120.045C160.825 120.382 160.864 120.711 160.911 121.033C160.958 121.362 161.005 121.684 161.052 122.006C161.099 122.327 161.138 122.672 161.17 123.041H161.225C161.327 122.672 161.421 122.327 161.515 122.006C161.601 121.684 161.695 121.362 161.789 121.033C161.883 120.703 161.97 120.374 162.048 120.045L163.625 114.687H164.527L166.104 120.045C166.19 120.382 166.284 120.711 166.37 121.033C166.456 121.362 166.551 121.684 166.637 122.013C166.723 122.343 166.825 122.68 166.927 123.041H167.006C167.045 122.68 167.084 122.343 167.131 122.013C167.178 121.684 167.217 121.362 167.264 121.033C167.311 120.703 167.351 120.374 167.39 120.045L168.676 111.377H169.539L167.5 124.061H166.362L164.613 118.044C164.527 117.676 164.433 117.307 164.346 116.938C164.26 116.57 164.166 116.209 164.08 115.832H164.025C163.939 116.201 163.844 116.57 163.758 116.938C163.672 117.307 163.562 117.668 163.452 118.044L161.758 124.061H160.628H160.636Z" fill="white"/>
<path d="M173.03 124.06L177.486 111.4H178.372L182.827 124.06H181.886L179.368 116.608C179.109 115.855 178.866 115.126 178.639 114.428C178.411 113.73 178.184 113 177.964 112.231H177.886C177.658 113 177.431 113.73 177.203 114.428C176.976 115.126 176.741 115.855 176.482 116.608L173.909 124.06H173.022H173.03ZM175.062 119.715V118.961H180.733V119.715H175.062Z" fill="white"/>
<path d="M187.549 124.06V111.4H191.165C192.012 111.4 192.742 111.51 193.361 111.729C193.981 111.949 194.467 112.302 194.812 112.796C195.157 113.29 195.33 113.941 195.33 114.749C195.33 115.557 195.157 116.161 194.812 116.679C194.467 117.197 193.981 117.589 193.361 117.848C192.742 118.106 192.004 118.24 191.165 118.24H188.435V124.06H187.549ZM188.435 117.503H190.93C192.059 117.503 192.922 117.275 193.526 116.82C194.13 116.365 194.428 115.667 194.428 114.734C194.428 113.8 194.13 113.118 193.526 112.726C192.922 112.333 192.059 112.137 190.93 112.137H188.435V117.495V117.503ZM190.969 117.989L191.816 117.738L195.581 124.06H194.546L190.969 117.989Z" fill="white"/>
<path d="M202.885 124.06V112.145H198.484V111.392H208.172V112.145H203.771V124.06H202.885Z" fill="white"/>
<path d="M211.065 124.061V123.543L218.807 112.13H211.716V111.377H219.866V111.918L212.124 123.292H220V124.061H211.065Z" fill="white"/>
</svg>
