<?xml version="1.0" encoding="UTF-8"?>
<svg id="Capa_1" xmlns="http://www.w3.org/2000/svg" version="1.1" viewBox="0 0 666.67 666.67">
  <!-- Generator: Adobe Illustrator 30.3.0, SVG Export Plug-In . SVG Version: 2.1.3 Build 182)  -->
  <path d="M66.67,0C29.85,0,0,29.85,0,66.67v133.33c0,18.41,14.92,33.33,33.33,33.33s33.33-14.92,33.33-33.33V66.67h133.33c18.41,0,33.33-14.92,33.33-33.33S218.41,0,200,0H66.67Z" fill="#fbfbfb"/>
  <path d="M600,0c36.82,0,66.67,29.85,66.67,66.67v133.33c0,18.41-14.92,33.33-33.33,33.33s-33.33-14.92-33.33-33.33V66.67h-133.33c-18.41,0-33.33-14.92-33.33-33.33S448.26,0,466.67,0h133.33Z" fill="#fbfbfb"/>
  <path d="M600,666.67c36.82,0,66.67-29.85,66.67-66.67v-133.33c0-18.41-14.92-33.33-33.33-33.33s-33.33,14.92-33.33,33.33v133.33h-133.33c-18.41,0-33.33,14.92-33.33,33.33s14.92,33.33,33.33,33.33h133.33Z" fill="#fbfbfb"/>
  <path d="M0,600c0,36.82,29.85,66.67,66.67,66.67h133.33c18.41,0,33.33-14.92,33.33-33.33s-14.92-33.33-33.33-33.33H66.67v-133.33c0-18.41-14.92-33.33-33.33-33.33S0,448.26,0,466.67v133.33Z" fill="#fbfbfb"/>
</svg>