<?xml version="1.0" encoding="UTF-8"?>
<svg id="Capa_1" xmlns="http://www.w3.org/2000/svg" xmlns:sketch="http://www.bohemiancoding.com/sketch/ns" version="1.1" viewBox="0 0 800 768">
  <!-- Generator: Adobe Illustrator 30.3.0, SVG Export Plug-In . SVG Version: 2.1.3 Build 182)  -->
  <g id="Page-1" sketch:type="MSPage">
    <g id="Icon-Set-Filled" sketch:type="MSLayerGroup">
      <path id="volume" d="M608,163.23v64c73.02,14.82,128,79.36,128,156.77s-54.98,141.95-128,156.77v64c108.42-15.65,192-108.03,192-220.77s-83.58-205.12-192-220.77h0ZM0,256v256c0,35.33,28.67,64,64,64h96V192h-96C28.67,192,0,220.67,0,256h0ZM448,0l-224,149.34v469.31l224,149.34c35.33,0,64-28.67,64-64V64c0-35.33-28.67-64-64-64h0Z" sketch:type="MSShapeGroup" fill="#fbfbfb" fill-rule="evenodd"/>
    </g>
  </g>
</svg>